<?xml version="1.0" encoding="utf-8"?>
<!-- Generator: Adobe Illustrator 21.0.2, SVG Export Plug-In . SVG Version: 6.00 Build 0)  -->
<svg version="1.1" xmlns="http://www.w3.org/2000/svg" xmlns:xlink="http://www.w3.org/1999/xlink" x="0px" y="0px"
	 viewBox="0 0 169.4 191.5" style="enable-background:new 0 0 169.4 191.5;" xml:space="preserve">
<style type="text/css">
	.st0{fill:#73C38E;}
</style>
<g id="logo_x5F_monad_xA0_Image_1_">
	<g id="Cercle">
	</g>
	<g id="Texte">
		<path class="st0" d="M17.6,165.3L17.6,165.3l-2.9,15.9h-3.1l4.9-25.2l8.3,19l8.3-19l4.9,25.2h-3.1l-2.8-15.9H32l-7.2,16.5
			L17.6,165.3z"/>
		<path class="st0" d="M70.7,169.2c0,7.2-5.7,12.6-12.6,12.6c-7,0-12.6-5.4-12.6-12.6c0-6.9,5.7-12.6,12.6-12.6
			C65,156.6,70.7,162.3,70.7,169.2z M67.7,169.2c0-5.3-4-9.8-9.6-9.8c-5.7,0-9.6,4.4-9.6,9.8c0,5.5,4.4,9.8,9.6,9.8
			C63.3,179,67.7,174.7,67.7,169.2z"/>
		<path class="st0" d="M79.7,156l18.1,19v-17.8h3v25.1l-18.1-19v18h-3V156z"/>
		<path class="st0" d="M140.1,157.1h5c7.4,0,13.5,3.9,13.5,11.9c0,8.2-6,12.2-13.6,12.2h-4.9V157.1z M143.1,178.5h1.1
			c6.1,0,11.5-2.3,11.5-9.3c0-7-5.3-9.3-11.5-9.3h-1.1V178.5z"/>
		<path class="st0" d="M121.2,152.5l-13.5,23.8l8.3,9.1l18.6-8L121.2,152.5z M121.9,159.1l9.1,17l-12.9,5.6L121.9,159.1z
			 M118.7,162.2l-3.2,18.8l-4.6-5.1L118.7,162.2z"/>
	</g>
</g>
<g id="Plante">
	<g id="Feuille_droite">
	</g>
	<g id="Feuille_gauche">
	</g>
	<g id="Tige">
	</g>
</g>
<g id="Tige_1_">
	<g id="Tige_-_copie">
	</g>
</g>
<g id="Feuille_droite_1_">
	<g id="Feuille_droite_-_copie">
	</g>
</g>
<g id="Feuille_gauche_1_">
	<g id="Feuille_gauche_-_copie">
	</g>
</g>
</svg>
