<?xml version="1.0" encoding="utf-8"?>
<!-- Generator: Adobe Illustrator 21.0.2, SVG Export Plug-In . SVG Version: 6.00 Build 0)  -->
<svg version="1.1" xmlns="http://www.w3.org/2000/svg" xmlns:xlink="http://www.w3.org/1999/xlink" x="0px" y="0px"
	 viewBox="0 0 169.4 191.5" style="enable-background:new 0 0 169.4 191.5;" xml:space="preserve">
<style type="text/css">
	.st0{fill:#73C38E;}
</style>
<g id="logo_x5F_monad_xA0_Image_1_">
	<g id="Cercle">
	</g>
</g>
<g id="Plante">
	<g id="Feuille_droite">
	</g>
	<g id="Feuille_gauche">
	</g>
	<g id="Tige">
	</g>
	<path class="st0" d="M82.4,52.4C75.1,46,47.2,37.5,43.5,41.7c-4,4.6,8.6,30.8,15.9,37.1c7,6.1,17.4,5.7,23.9-0.8
		C82,73.7,76.6,68.7,69.7,64c-1.1-0.8-0.7-1.3,1-0.8c4.2,1.2,8.5,3.3,15.3,11.4C90.2,67.5,88.9,58.1,82.4,52.4z"/>
	<path class="st0" d="M91.1,130.3c-3.5-10.2-7.9-16.9-7.6-24.7c0.3-9.1,3.5-13.8,4.7-21.1c1.2-7.3-1.3-6.6-4.7,0
		c-3.5,6.6-8.8,11.5-8.8,24.3c0,8,2.8,15.6,4.7,21.8C83.2,132,87.1,132.1,91.1,130.3z"/>
</g>
<g id="Tige_1_">
	<g id="Tige_-_copie">
	</g>
</g>
<g id="Feuille_droite_1_">
	<g id="Feuille_droite_-_copie">
	</g>
	<path class="st0" d="M126.1,64.4c-1.5-3.5-21.2-3.5-27.1-0.8c-4.8,2.2-7.5,7.2-6.9,12.2c5.4-4.5,8.5-5.5,11.6-5.9
		c1.3-0.2,1.5,0.3,0.6,0.7c-5.4,2.5-9.8,5.4-11.3,8.4c0,0.1,0,0.1,0.1,0.2c2.7,6,9.6,8.6,15.6,6C114.5,82.5,127.8,68.1,126.1,64.4z"
		/>
</g>
<g id="Feuille_gauche_1_">
	<g id="Feuille_gauche_-_copie">
	</g>
</g>
</svg>
