<?xml version="1.0" encoding="utf-8"?>
<!-- Generator: Adobe Illustrator 21.0.2, SVG Export Plug-In . SVG Version: 6.00 Build 0)  -->
<svg version="1.1" xmlns="http://www.w3.org/2000/svg" xmlns:xlink="http://www.w3.org/1999/xlink" x="0px" y="0px"
	 viewBox="0 0 169.4 191.5" style="enable-background:new 0 0 169.4 191.5;" xml:space="preserve">
<style type="text/css">
	.st0{fill:#73C38E;}
</style>
<g id="logo_x5F_monad_xA0_Image_1_">
	<g id="vase">
		<path class="st0" d="M80.8,142.4c1.1,0.1,2.3,0.1,3.4,0.1c38.2,0,69.3-31.1,69.3-69.3C153.4,35.1,122.3,4,84.2,4
			C46,4,14.9,35.1,14.9,73.3c0,36.9,29,67.2,65.5,69.2 M78.9,130.6c-29.3-2.7-52.3-27.3-52.3-57.3c0-31.7,25.8-57.6,57.6-57.6
			c31.7,0,57.6,25.8,57.6,57.6c0,29.2-21.9,53.4-50.1,57.1c-0.2,0-0.4,0-0.6,0.1C91,130.4,79.1,130.6,78.9,130.6z"/>
	</g>
</g>
<g id="Plante">
	<g id="Feuille_droite">
	</g>
	<g id="Feuille_gauche">
	</g>
	<g id="Tige">
	</g>
</g>
<g id="Tige_1_">
	<g id="Tige_-_copie">
	</g>
</g>
<g id="Feuille_droite_1_">
	<g id="Feuille_droite_-_copie">
	</g>
</g>
<g id="Feuille_gauche_1_">
	<g id="Feuille_gauche_-_copie">
	</g>
</g>
</svg>